Coordinates
version=1
nRows=4
nColumns=63
inDegrees=yes

Units are S.I. units (second, meters, Newtons, ...)
If the header above contains a line with 'inDegrees', this indicates whether rotational values are in degrees (yes) or radians (no).

endheader
time	pelvis_tilt	pelvis_list	pelvis_rotation	pelvis_tx	pelvis_ty	pelvis_tz	hip_flexion_r	hip_adduction_r	hip_rotation_r	knee_angle_r	knee_angle_r_beta	ankle_angle_r	subtalar_angle_r	mtp_angle_r	hip_flexion_l	hip_adduction_l	hip_rotation_l	knee_angle_l	knee_angle_l_beta	ankle_angle_l	subtalar_angle_l	mtp_angle_l	L5_S1_Flex_Ext	L5_S1_Lat_Bending	L5_S1_axial_rotation	L4_L5_Flex_Ext	L4_L5_Lat_Bending	L4_L5_axial_rotation	L3_L4_Flex_Ext	L3_L4_Lat_Bending	L3_L4_axial_rotation	L2_L3_Flex_Ext	L2_L3_Lat_Bending	L2_L3_axial_rotation	L1_L2_Flex_Ext	L1_L2_Lat_Bending	L1_L2_axial_rotation	L1_T12_Flex_Ext	L1_T12_Lat_Bending	L1_T12_axial_rotation	Abs_r3	Abs_r2	Abs_r1	Abs_t1	Abs_t2	neck_flexion	neck_bending	neck_rotation	arm_flex_r	arm_add_r	arm_rot_r	elbow_flex_r	pro_sup_r	wrist_flex_r	wrist_dev_r	arm_flex_l	arm_add_l	arm_rot_l	elbow_flex_l	pro_sup_l	wrist_flex_l	wrist_dev_l
      2.96666667	     21.30706362	     21.45835223	   -136.62869269	      0.06903707	      0.71049030	      0.53301651	     47.60119645	    -42.12065311	      0.28773938	     28.65714414	      0.50016152	      9.12381830	      4.75728642	      0.00000000	     87.52125916	     -6.04866074	      8.48432052	     66.97490938	      1.16893268	     11.26778293	     -8.64704117	      0.00000000	     -0.02173111	     -0.48292602	      1.94688619	     -0.04035684	     -0.64229161	      2.06856658	     -0.03570204	     -1.17418633	      2.06856658	     -0.02483648	     -1.17418633	      1.70352542	     -0.02017951	     -0.98478274	      1.58184503	     -0.01241715	     -0.74805241	      1.46016464	     -0.15522312	     -5.46295575	     10.82799694	      0.00000000	      0.00000000	     -0.00000000	      0.00000000	      0.00000000	     10.92284366	    -42.55399552	     28.65849365	     86.14966550	     62.86208836	      0.00000000	      4.99999948	     12.15905231	    -13.26407669	     36.34954180	    112.59819911	     62.69020296	      0.00000000	      4.99999948
      3.00000000	     25.49944208	     14.67574823	   -151.38674003	      0.07563697	      0.72360911	      0.58061075	     55.63691911	    -39.24428754	      6.56703729	     28.80168832	      0.50268429	      3.84133560	      0.68682323	      0.00000000	     82.75031501	     -8.18297916	      6.44698007	     69.06534738	      1.20541771	     14.04721402	    -15.99093695	      0.00000000	     -0.01920727	     -1.04512635	      2.06745116	     -0.03566982	     -1.39001805	      2.19666685	     -0.03155562	     -2.54112021	      2.19666685	     -0.02195199	     -2.54112021	      1.80901976	     -0.01783587	     -2.13122165	      1.67980407	     -0.01097503	     -1.61890072	      1.55058837	     -0.13719560	    -11.82267831	     11.49854310	      0.00000000	      0.00000000	     -0.00000000	      0.00000000	      0.00000000	     15.75725930	    -41.27480730	     33.10470798	     99.97293471	     62.95912024	      0.00000000	      4.99999958	     14.43748293	    -12.68026260	     34.37579240	    118.07939582	     61.70807615	      0.00000000	      4.99999958
      3.03333333	     26.28025482	      7.87449065	   -165.74182901	      0.08662733	      0.74165335	      0.62704448	     62.02090168	    -33.28159757	     10.05608151	     35.87144687	      0.62607486	      4.31778382	     -4.01798697	      0.00000000	     76.60450813	     -9.93280190	      5.22240189	     70.38951854	      1.22852886	     17.32697293	    -18.46659141	      0.00000000	     -0.01264199	     -1.41000979	      2.04140802	     -0.02347745	     -1.87531302	      2.16899602	     -0.02076953	     -3.42829780	      2.16899602	     -0.01444853	     -3.42829780	      1.78623202	     -0.01173936	     -2.87529196	      1.65864402	     -0.00722364	     -2.18410516	      1.53105602	     -0.09030050	    -15.95031273	     11.35369900	      0.00000000	      0.00000000	     -0.00000000	      0.00000000	      0.00000000	     21.50574400	    -39.15432360	     38.34859624	    113.28630563	     63.27581041	      0.00000000	      4.99999963	     15.21227226	    -12.32433717	     31.69762022	    124.64951291	     61.11406028	      0.00000000	      4.99999963
      3.06666667	     24.42144217	      2.49723709	   -178.94268176	      0.09887243	      0.76027318	      0.67437683	     64.81457091	    -27.08610922	     10.52081091	     49.31405062	      0.86069255	     10.26235104	     -7.71863247	      0.00000000	     70.01174021	     -9.67966785	      6.64831842	     70.98516956	      1.23892493	     20.13562289	    -18.16074344	      0.00000000	     -0.00506861	     -1.58045051	      1.73816903	     -0.00941291	     -2.10199918	      1.84680459	     -0.00832721	     -3.84270738	      1.84680459	     -0.00579291	     -3.84270738	      1.52089790	     -0.00470671	     -3.22285469	      1.41226234	     -0.00289620	     -2.44811784	      1.30362677	     -0.03620455	    -17.87837229	      9.66717469	      0.00000000	      0.00000000	     -0.00000000	      0.00000000	      0.00000000	     25.63931603	    -35.80583146	     42.61633516	    124.61920645	     63.35936249	      0.00000000	      4.99999965	     15.37440276	    -11.77246919	     30.45401463	    130.91762655	     60.79667564	      0.00000000	      4.99999965
